PathFileType	4	(X/Y/Z)	C:/Users/beibeiliu/ov580/test_trc/User2\sequence.20_training_dense_left.trc
DataRate	CameraRate	NumFrames	NumMarkers	Units	OrigDataRate	OrigDataStartFrame	OrigNumFrames
120	120	23	19	mm	120	31	92
Frame#	Time	ThumbCMC			ThumbMCP			ThumbIP			ThumbTip			IndexMCP			IndexPIP			IndexTip			MiddleMCP			MiddlePIP			MiddleTip			RingMCP			RingPIP			RingTip			PinkyMCP			PinkyPIP			PinkyTip			BackHand1			BackHand2			BackHand3	
		X0	Y0	Z0	X1	Y1	Z1	X2	Y2	Z2	X3	Y3	Z3	X4	Y4	Z4	X5	Y5	Z5	X6	Y6	Z6	X7	Y7	Z7	X8	Y8	Z8	X9	Y9	Z9	X10	Y10	Z10	X11	Y11	Z11	X12	Y12	Z12	X13	Y13	Z13	X14	Y14	Z14	X15	Y15	Z15	X16	Y16	Z16	X17	Y17	Z17	X18	Y18	Z18	
30	0.25	-212.774	8.43107	8.12996	-185.622	3.18316	-8.66517	-166.535	-10.2868	-27.5846	-147.077	-19.9023	-43.1443	-221.935	-20.3319	-69.7485	-219.707	-32.4127	-89.2613	-213.274	-47.7055	-118.103	-255.6	-24.7502	-70.5465	-253.571	-41.9651	-99.4338	-253.142	-58.1846	-124.178	-280.707	-31.7504	-63.2584	-286.576	-47.7538	-84.2631	-284.157	-62.9231	-108.28	-299.872	-32.392	-38.1117	-310.027	-42.2742	-55.7407	-321.647	-44.4803	-81.0499	-280.675	3.07348	-15.6835	-277.694	22.2602	13.2448	-245.51	19.1473	-9.28839	
31	0.258333	-219.367	20.4908	9.59908	-191.242	18.7884	-7.43725	-171.308	9.31025	-27.5853	-148.44	6.31765	-39.6844	-225.322	-19.1402	-68.1883	-214.193	-30.1568	-86.9675	-205.785	-45.3763	-111.549	-251.47	-30.0493	-72.1662	-246.27	-48.5247	-96.06	-241.422	-65.9308	-121.772	-278.677	-41.2735	-56.6227	-277.04	-57.1875	-76.4498	-274.667	-77.0167	-101.204	-296.918	-43.7067	-30.9027	-306.585	-58.8658	-52.2375	-312.805	-66.1462	-70.5518	-283.288	-2.221	-14.4464	-284.017	18.7515	12.8686	-249.295	20.4047	-10.8717	
32	0.266667	-230.052	31.7893	7.1664	-205.751	36.4909	-8.20237	-179.089	35.2901	-29.7777	-160.409	32.5115	-42.5365	-222.819	-10.8064	-61.8474	-210.209	-26.0898	-84.5862	-199.458	-41.1485	-106.503	-247.088	-32.5498	-65.6284	-236.888	-50.3854	-89.8182	-225.146	-68.9869	-112.93	-265.775	-47.2413	-54.2661	-262.457	-66.4122	-70.9234	-253.406	-86.6719	-91.3674	-285.953	-56.7005	-28.0419	-285.839	-73.1644	-48.2488	-292.176	-88.1725	-67.8611	-284.612	-11.1801	-14.8909	-291.838	11.7217	11.061	-263.12	18.274	-9.64076	
33	0.275	-246.181	44.2113	2.74457	-224.095	52.6389	-15.4691	-197.767	55.669	-39.8055	-181.28	60.4455	-47.728	-223.436	-7.89498	-62.157	-206.906	-18.3508	-82.8505	-189.347	-30.1624	-102.879	-235.198	-31.721	-65.7065	-221.092	-48.0179	-85.0293	-205.374	-63.6364	-104.903	-248.713	-52.5678	-51.8273	-238.968	-70.2279	-64.9588	-222.968	-90.0976	-84.1706	-266.449	-66.7548	-26.6457	-258.948	-83.4826	-41.4688	-262.304	-100.355	-55.9086	-279.532	-16.9752	-16.3528	-296.329	-0.499367	4.25055	-271.987	16.5092	-15.7198	
34	0.283333	-266.293	46.2861	-2.35895	-248.343	63.5199	-20.7354	-226.265	71.4398	-43.4427	-209.717	80.4901	-57.5824	-225.036	5.40888	-63.4778	-202.372	-3.25339	-85.4632	-186.821	-9.97821	-100.899	-226.967	-24.185	-66.4607	-205.645	-37.9101	-84.2237	-182.65	-49.7427	-103.477	-234.586	-49.2674	-47.5125	-214.85	-61.2386	-63.543	-193.446	-77.3556	-77.5839	-245.942	-61.005	-19.1968	-231.487	-80.7085	-36.0988	-223.848	-96.7906	-50.9166	-275.346	-21.6112	-17.0858	-300.009	-10.0376	5.13598	-279.852	11.2937	-18.7372	
35	0.291667	-284.681	46.9604	-7.067	-270.982	63.5725	-30.8954	-253.405	76.6399	-51.9011	-240.125	91.4835	-66.9214	-230.849	17.367	-69.5078	-207.699	18.7434	-90.522	-189.605	14.447	-104.769	-221.361	-16.0043	-66.8018	-196.88	-17.4397	-85.0125	-172.368	-22.5178	-103.043	-219.602	-37.4508	-46.7507	-196.389	-44.1734	-61.7023	-173.288	-49.5714	-73.9796	-224.172	-52.8309	-22.1122	-204.991	-64.7626	-32.9986	-192.828	-78.3181	-41.7096	-267.944	-26.078	-19.3012	-295.49	-21.2865	1.91508	-284.868	7.90933	-19.8799	
36	0.3	-297.876	39.7377	-13.616	-289.986	57.3764	-37.3688	-278.411	74.8203	-60.5445	-274.625	94.5031	-78.3626	-236.892	19.6903	-74.6603	-220.223	24.0911	-93.5526	-199.23	26.0684	-113.206	-222.456	-4.11041	-70.0578	-199.346	-0.605651	-88.8654	-171.054	-3.09631	-105.078	-212.64	-22.95	-48.7136	-190.181	-23.4946	-62.258	-160.724	-22.7343	-80.928	-208.91	-34.8824	-24.7513	-188.04	-41.016	-34.4257	-169.65	-55.0047	-43.8128	-260.141	-25.9838	-16.349	-285.882	-26.7787	0.747304	-285.801	1.32723	-23.066	
37	0.308333	-305.175	28.0814	-17.1466	-306.089	45.8969	-42.7155	-302.538	64.3249	-66.1114	-303.628	81.7504	-85.4768	-247.822	17.5024	-84.7754	-234.862	23.6472	-106.031	-219.171	30.3482	-127.358	-228.671	-2.38027	-74.3021	-206.386	4.00048	-97.6351	-181.517	8.67293	-116.204	-212.086	-15.7459	-54.5854	-190.183	-10.6599	-75.161	-163.288	-8.65037	-91.059	-207.453	-23.4939	-25.7671	-183.259	-25.5789	-37.9956	-167.945	-31.2907	-52.7708	-259.22	-22.7702	-18.4041	-276.97	-33.1035	4.83122	-289.316	-4.74369	-27.2475	
38	0.316667	-313.115	14.0642	-16.2916	-325.606	30.9902	-41.6498	-328.629	45.6133	-71.4462	-327.473	59.3533	-89.0591	-270.015	3.75485	-87.4737	-261.545	9.89018	-116.687	-245.404	12.3136	-139.446	-247.45	-8.85679	-85.0381	-226.627	-4.45938	-111.79	-204.536	2.4655	-137.375	-223.302	-15.7356	-68.1646	-204.62	-13.0891	-87.4801	-184.768	-7.70894	-108.287	-209.317	-17.4326	-39.7687	-188.104	-18.8012	-51.3137	-168.461	-26.6469	-68.2691	-256.033	-26.3906	-19.0802	-275.216	-33.1477	4.21653	-294.97	-16.6217	-25.2461	
39	0.325	-317.071	6.39962	-14.161	-329.39	18.5726	-37.3484	-341.367	29.3434	-72.0431	-347.153	39.7471	-96.0277	-284.823	-13.1869	-93.549	-282.239	-12.4812	-116.674	-272.275	-10.431	-147.394	-257.577	-26.1361	-90.5217	-245.89	-23.5368	-120.803	-231.137	-20.2145	-145.4	-236.872	-26.8177	-74.6155	-219.432	-27.023	-98.0231	-201.944	-25.6023	-123.692	-215.55	-24.4128	-50.1892	-197.712	-26.3275	-66.5568	-180.651	-32.6088	-84.9265	-262.419	-32.3939	-22.7579	-271.146	-35.912	6.96474	-299.851	-23.2485	-19.9375	
40	0.333333	-325.726	6.20744	-12.2233	-336.801	13.3146	-36.4658	-351.838	19.9517	-66.6117	-361.096	28.4497	-88.8445	-298.639	-25.7546	-89.552	-299.566	-26.3705	-115.763	-292.049	-29.0381	-142.637	-273.073	-37.0772	-88.4485	-266.061	-39.7102	-118.57	-258.599	-38.2581	-150.683	-247.215	-38.7969	-74.8155	-237.758	-42.9427	-99.7911	-226.208	-43.8855	-130.675	-229.816	-32.263	-53.1225	-211.443	-38.0261	-71.767	-201.922	-48.5016	-92.5345	-263.118	-37.1982	-23.1888	-273.949	-36.7061	9.79089	-301.995	-28.2859	-14.943	
41	0.341667	-329.411	9.09843	-6.21628	-340.176	17.3606	-28.087	-360.792	21.4246	-61.998	-368.104	26.1446	-83.4248	-316.208	-27.8734	-80.8129	-318.903	-33.1519	-106.563	-314.425	-38.1664	-135.113	-290.367	-44.5996	-85.114	-288.731	-50.1662	-115.368	-280.082	-55.1151	-146.368	-263.338	-47.8861	-72.0372	-260.473	-54.0261	-99.0244	-254.213	-59.4406	-128.729	-240.064	-42.5958	-53.7854	-230.217	-51.9426	-76.0003	-220.838	-66.7468	-96.3249	-274.295	-37.8285	-19.8545	-281.178	-33.8923	11.8979	-310.909	-24.5572	-8.41502	
42	0.35	-326.952	17.0986	-5.91501	-345.21	26.9231	-25.4714	-358.752	29.7361	-58.1532	-368.705	36.9621	-77.466	-332.706	-23.3093	-75.1932	-337.337	-30.3724	-104.921	-339.376	-36.8303	-134.058	-309.441	-44.2655	-83.0384	-310.131	-52.821	-111.98	-312.288	-58.3501	-145.464	-281.982	-51.6797	-70.8255	-279.048	-63.7654	-98.0865	-280.92	-70.1073	-126.4	-256.906	-50.0943	-54.6094	-253.22	-63.5654	-77.0286	-251.591	-78.8896	-95.741	-285.277	-37.2585	-16.0621	-285.796	-31.8834	14.8271	-315.933	-18.8883	-4.65806	
43	0.358333	-324.632	27.7985	-2.8094	-337.538	37.7147	-25.1423	-354.726	48.5821	-50.6332	-366.62	56.5017	-76.2874	-341.452	-16.9936	-74.2536	-353.305	-17.5677	-97.1438	-357.878	-25.3074	-123.964	-325.63	-38.9651	-76.0402	-336.711	-46.0436	-109.058	-338.083	-54.2189	-137.455	-304.539	-52.9731	-71.9459	-306.577	-63.3995	-93.4406	-308.4	-73.8703	-123.687	-279.862	-55.8526	-56.8332	-277.986	-70.7861	-75.8454	-281.567	-85.2371	-92.3227	-298.807	-36.6352	-18.1504	-292.048	-33.1525	15.7038	-322.67	-9.84136	-2.06147	
44	0.366667	-316.371	34.4377	-1.14882	-331.583	53.8053	-23.96	-349.242	66.3266	-53.8413	-353.016	71.5913	-75.7138	-350.926	-0.975517	-69.1258	-362.995	-4.31312	-93.2865	-370.478	-10.1063	-123.798	-342.257	-26.3776	-71.1979	-352.472	-35.8466	-100.621	-362.044	-42.445	-132.773	-322.819	-49.0018	-69.5755	-329.136	-57.9328	-90.065	-334.646	-67.5917	-120.888	-296.306	-53.4247	-52.4664	-302.042	-72.9987	-76.1777	-312.186	-85.2922	-95.7327	-308.22	-31.7717	-15.3012	-303.681	-25.3394	15.0581	-329.01	-0.888578	-3.30285	
45	0.375	-311.009	44.251	-3.10922	-316.713	64.6513	-28.1973	-321.401	77.5409	-55.8405	-323.621	85.9661	-78.5536	-356.524	16.6019	-66.8048	-368.991	17.7624	-94.7064	-372.406	15.3653	-124.217	-356.543	-11.4003	-70.4314	-369.533	-19.7002	-101.396	-378.556	-22.327	-129.025	-342.276	-32.642	-64.2224	-351.144	-42.4274	-87.2312	-359.685	-50.084	-120.76	-318.732	-51.1043	-53.8944	-325.947	-65.0347	-73.9375	-337.878	-73.2439	-92.4198	-319.382	-27.925	-12.9871	-314.089	-20.048	19.0693	-329.893	9.84994	0.32887	
46	0.383333	-295.995	50.8758	-5.8901	-283.445	69.0424	-29.643	-278.95	78.8692	-60.3983	-277.367	74.997	-89.2645	-348.612	39.6281	-64.7601	-358.38	42.8386	-93.6781	-350.455	37.8876	-126.422	-360.716	14.8944	-66.8626	-376.492	13.5886	-99.8131	-381.194	9.85429	-129.303	-353.473	-17.391	-60.4811	-367.417	-16.8494	-86.5038	-373.414	-23.0119	-116.67	-338.533	-37.6422	-53.2515	-348.325	-43.4952	-72.1738	-358.892	-50.1434	-95.5387	-331.724	-11.5368	-13.7399	-321.566	-12.2636	19.3885	-326.779	24.3803	0.499992	
47	0.391667	-279.215	51.1036	-2.4977	-262.767	59.7463	-28.7429	-249.819	71.6294	-62.1494	-248.246	62.5916	-88.4962	-333.709	56.295	-68.3401	-331.99	61.9821	-96.389	-311.72	52.905	-123.923	-351.661	30.5649	-63.1729	-367.357	33.1732	-97.1983	-367.925	35.484	-131.209	-354.591	2.09226	-63.5523	-365.215	4.75305	-87.4286	-370.526	2.75005	-119.648	-339.695	-21.4643	-52.2191	-354.703	-27.8297	-76.6413	-365.421	-28.9794	-101.469	-328.581	-3.32964	-11.6922	-324.373	-2.41195	17.1958	-320.192	32.6639	2.69183	
48	0.4	-271.353	49.1296	2.90492	-251.063	57.8121	-24.2615	-235.704	67.6341	-57.8423	-241.377	51.0954	-83.5277	-318.221	62.8967	-67.8476	-309.594	64.8112	-99.4443	-283.434	49.8969	-115.76	-342.924	37.3579	-64.5801	-353.201	47.5711	-99.9803	-348.461	48.0834	-135.025	-343.251	13.4309	-62.3621	-358.192	12.4471	-91.9001	-356.514	19.8755	-124.756	-338.055	-16.5666	-55.3792	-351.961	-17.0401	-80.5314	-360.478	-17.2706	-100.384	-325.994	0.0579462	-12.2204	-320.58	-1.98118	14.8935	-314.655	31.2052	4.6119	
49	0.408333	-264.753	53.5663	1.47164	-245.161	59.4054	-21.6342	-229.961	66.1883	-53.5766	-234.002	52.2559	-81.769	-305.536	65.9527	-71.6649	-287.873	65.4304	-99.2254	-261.948	48.2328	-105.808	-334.857	43.9988	-67.5185	-341.047	49.8916	-102.231	-332.416	47.7386	-139.16	-338.224	16.5154	-65.5445	-347.265	21.506	-95.4376	-345.838	23.0302	-125.806	-325.916	-9.1516	-53.3097	-342.338	-10.0386	-79.4119	-356.363	-13.6424	-103.415	-322.304	5.22109	-16.0894	-314.348	1.55091	15.1802	-309.003	35.5254	3.19405	
50	0.416667	-258.667	51.7279	8.34453	-237.729	61.9673	-19.6253	-222.574	66.9804	-49.3809	-224.635	55.5491	-79.4245	-292.135	68.5785	-66.0425	-274.299	63.5945	-97.3421	-246.676	47.4848	-98.005	-323.219	47.8835	-68.9576	-326.96	55.7201	-104.624	-315.741	53.8784	-136.35	-327.449	22.232	-65.1496	-336.651	25.3911	-98.2277	-330.27	30.8123	-129.959	-321.854	-6.65042	-57.878	-335.382	-9.3505	-79.778	-345.567	-5.05437	-102.358	-314.801	7.52582	-15.0785	-313.076	1.18344	13.7881	-304.093	37.4527	3.46935	
51	0.425	-247.951	51.4361	11.7777	-223.005	61.9577	-13.0919	-210.099	63.9566	-45.0732	-214.874	52.1834	-76.3026	-276.987	72.0093	-66.8863	-255.771	67.1968	-92.1456	-230.333	42.1155	-90.6168	-308.348	57.0213	-67.6038	-309.377	68.6858	-99.4914	-295.386	65.3699	-138.617	-315.672	33.4316	-65.8187	-322.284	40.067	-96.6906	-316.804	40.5118	-126.028	-313.109	-1.60931	-55.9935	-327.304	2.72566	-84.0663	-333.657	7.88047	-106.836	-306.217	15.0554	-16.9084	-306.44	3.98484	13.6663	-294.055	44.2328	4.60148	
52	0.433333	-238.549	47.7471	12.7055	-211.837	53.8079	-6.92519	-193.659	60.1409	-44.5781	-201.536	46.5766	-69.7105	-259.575	76.1504	-61.5208	-238.918	70.4202	-87.0451	-218.336	40.6691	-86.0661	-293.31	70.0535	-66.8568	-289.572	83.3949	-94.6992	-275.369	85.757	-128.806	-304.436	41.8557	-62.8863	-307.715	56.4177	-91.5928	-302.076	60.8419	-123.187	-306.516	11.8314	-57.1444	-318.285	19.6312	-84.248	-329.094	25.4303	-107.861	-297.149	23.9292	-16.8811	-302.479	11.4043	16.945	-281.452	50.1619	5.90324	
